<svg xmlns="http://www.w3.org/2000/svg" version="1.1" xmlns:xlink="http://www.w3.org/1999/xlink" xmlns:svgjs="http://svgjs.dev/svgjs" width="1000" height="623" viewBox="0 0 1000 623"><g transform="matrix(1,0,0,1,-0.6060606060606233,0.2522267206477409)"><svg viewBox="0 0 396 247" data-background-color="#ffffff" preserveAspectRatio="xMidYMid meet" height="623" width="1000" xmlns="http://www.w3.org/2000/svg" xmlns:xlink="http://www.w3.org/1999/xlink"><g id="tight-bounds" transform="matrix(1,0,0,1,0.2400000000000091,-0.09999999999999432)"><svg viewBox="0 0 395.52 247.2" height="247.2" width="395.52"><g><svg></svg></g><g><svg viewBox="0 0 395.52 247.2" height="247.2" width="395.52"><g transform="matrix(1,0,0,1,112.1734041450777,47.215199999999996)"><svg viewBox="0 0 171.1731917098446 152.7696" height="152.7696" width="171.1731917098446"><g><svg viewBox="0 0 171.1731917098446 152.7696" height="152.7696" width="171.1731917098446"><g><svg viewBox="0 0 171.1731917098446 152.7696" height="152.7696" width="171.1731917098446"><g><svg viewBox="0 0 171.1731917098446 152.7696" height="152.7696" width="171.1731917098446"><g id="textblocktransform"><svg viewBox="0 0 171.1731917098446 152.7696" height="152.7696" width="171.1731917098446" id="textblock"><g><svg viewBox="0 0 171.1731917098446 152.7696" height="152.7696" width="171.1731917098446"><g transform="matrix(1,0,0,1,0,0)"><svg width="171.1731917098446" viewBox="3.1500000953674316 -37.75 43.25 38.599998474121094" height="152.7696" data-palette-color="#61777f"><path d="M5.8 0.1Q5.2 0.1 4.6-0.2 4-0.5 4-0.9L4-0.9Q4-1.2 4.4-1.9L4.4-1.9Q4.8-2.55 4.75-2.9L4.75-2.9 4.6-7.3 4.25-20.95 4.15-27Q4.1-32.55 3.9-33.95L3.9-33.95Q3.8-34.5 3.5-35.2L3.5-35.2Q3.15-36.15 3.15-36.55L3.15-36.55Q3.15-37.75 6.95-37.75L6.95-37.75 7.2-37.75Q9.75-37.75 11.6-36L11.6-36Q13.05-34.65 14.2-31.75L14.2-31.75Q15-29.45 15.4-26.6L15.4-26.6Q15.6-25.1 15.75-22L15.75-22 15.75-20.45Q15.75-17.35 14.93-13.73 14.1-10.1 12.6-6.95L12.6-6.95Q11.7-4.95 10.28-3.35 8.85-1.75 7.55-0.83 6.25 0.1 5.8 0.1L5.8 0.1ZM6.3-2.45L6.55-2.45Q8.4-3.4 9.85-5.23 11.3-7.05 12.15-9.25L12.15-9.25Q12.9-11.1 13.4-13.48 13.9-15.85 14.1-17.9L14.1-17.9Q14.25-19.7 14.25-21.35L14.25-21.35Q14.25-35.95 6.2-35.95L6.2-35.95Q5.15-35.95 5.15-35.4L5.15-35.4Q5.15-33.65 5.35-31.25L5.35-31.25Q5.55-28.8 5.55-27.1L5.55-27.1Q5.55-24.35 5.95-17.55L5.95-17.55Q6.3-11.65 6.3-8.05L6.3-8.05 6.3-2.45ZM26.5-0.3L25.95-0.7 25.9-2.55Q25.85-3.35 25.85-4.35L25.85-4.35Q25.85-4.85 25.9-5.2L25.9-5.2 25.95-6.1Q25.95-6.6 25.75-7.3L25.75-7.3Q25.75-10.65 25.25-19.75L25.25-19.75Q24.75-28.55 24.7-31.7L24.7-31.7Q21.6-31.7 20.55-31.85L20.55-31.85Q19.55-32.1 19.55-32.65L19.55-32.65Q19.8-33.2 20.5-33.2L20.5-33.2Q22-33.2 24.85-33L24.85-33Q27.45-32.75 29.2-32.75L29.2-32.75 30.25-32.75 31.3-32.8Q32.2-32.8 32.2-32.15L32.2-32.15Q32.2-31.85 31.87-31.68 31.55-31.5 31.1-31.5L31.1-31.5Q30.1-31.5 29-31.6L29-31.6 26.85-31.7Q26.65-31.7 26.65-31.55L26.65-31.55Q26.6-31.4 26.6-30.6L26.6-30.6Q26.6-25.75 27.2-15.9L27.2-15.9Q27.75-5.7 27.75-1.25L27.75-1.25Q27.75-0.9 27.32-0.6 26.9-0.3 26.5-0.3L26.5-0.3ZM45.85 0.85L45.15 0.6Q44.55-0.05 43.85-2.85 43.15-5.65 42.55-9.15L42.55-9.15Q42.15-12 41.4-14.8L41.4-14.8Q40.8-17.3 40.25-17.3L40.25-17.3 40.1-17.3Q39-17.3 39-16.6L39-16.6Q39-13 39.4-5.65L39.4-5.65Q39.6-1.15 39.85-0.4L39.85-0.4 39.45 0.45 38.75 0.45 38.35 0.05Q37.55-23.05 37.55-31.45L37.55-31.45Q37.55-32 37.62-32.35 37.7-32.7 37.95-33L37.95-33Q38.15-33.35 38.65-33.35L38.65-33.35Q41.2-33.35 42.75-32.1 44.3-30.85 44.3-28.5L44.3-28.5 44.3-24.85Q44.3-23.9 43.67-22.3 43.05-20.7 42.3-19.35L42.3-19.35 41.65-18.1Q42.2-15.55 43.82-8.93 45.45-2.3 45.6-1.9L45.6-1.9Q45.65-1.85 45.72-1.65 45.8-1.45 46.05-1.05L46.05-1.05Q46.4-0.35 46.4 0.15L46.4 0.15Q46.4 0.85 45.85 0.85L45.85 0.85ZM39.25-18.55Q40.2-18.55 40.95-19.5 41.7-20.45 42.15-21.95L42.15-21.95Q42.95-25 42.95-26.8L42.95-26.8Q42.95-27.95 42.82-28.7 42.7-29.45 42.4-30.3L42.4-30.3Q41.8-32.05 39.55-32.05L39.55-32.05Q39.3-32.05 39.15-31.63 39-31.2 39-30.75L39-30.75Q39-27.4 39.1-24.7L39.1-24.7Q39.15-22 39.15-18.65L39.15-18.65 39.25-18.55Z" opacity="1" transform="matrix(1,0,0,1,0,0)" fill="#61777f" class="wordmark-text-0" data-fill-palette-color="primary" id="text-0"></path></svg></g></svg></g></svg></g></svg></g></svg></g></svg></g></svg></g><path d="M294.475 41.215L294.475 0 47.275 0 47.275 247.2 294.475 247.2 294.475 205.985 280.698 205.985 280.698 233.423 61.052 233.423 61.052 13.777 280.698 13.777 280.698 41.215Z" fill="#61777f" stroke="transparent" data-fill-palette-color="primary"></path></svg></g><defs></defs></svg><rect width="395.52" height="247.2" fill="none" stroke="none" visibility="hidden"></rect></g></svg></g></svg>